<svg width="20" height="19" viewBox="0 0 20 19" fill="none" xmlns="http://www.w3.org/2000/svg">
<path opacity="0.997" d="M17.572 3.06612C17.1145 2.5682 16.5579 2.17162 15.9378 1.9019C15.3178 1.63218 14.6481 1.49532 13.972 1.50012C12.9461 1.4956 11.9491 1.83935 11.144 2.47512C10.7075 2.81596 10.3222 3.21773 10 3.66812C9.67778 3.2177 9.29251 2.81593 8.856 2.47512C8.05092 1.83928 7.05387 1.49553 6.028 1.50012C5.35185 1.49532 4.6822 1.63218 4.06216 1.9019C3.44213 2.17162 2.88545 2.5682 2.428 3.06612C1.48711 4.11926 0.977283 5.48808 0.999995 6.90012C1.04047 8.53083 1.67525 10.0906 2.785 11.2861C4.1596 12.801 5.65411 14.2025 7.254 15.4771C7.873 16.0041 8.575 16.6021 9.304 17.2391C9.49661 17.4074 9.74371 17.5002 9.9995 17.5002C10.2553 17.5002 10.5024 17.4074 10.695 17.2391C11.424 16.6021 12.126 16.0041 12.746 15.4771C14.3459 14.2026 15.8404 12.801 17.215 11.2861C18.3248 10.0906 18.9596 8.53085 19 6.90012C19.0228 5.48806 18.513 4.11921 17.572 3.06612V3.06612Z" stroke="#13141A" stroke-width="2"/>
</svg>
